Coordinates
version=1
nRows=15
nColumns=42
inDegrees=yes

Units are S.I. units (second, meters, Newtons, ...)
If the header above contains a line with 'inDegrees', this indicates whether rotational values are in degrees (yes) or radians (no).

endheader
time	pelvis_tilt	pelvis_list	pelvis_rotation	pelvis_tx	pelvis_ty	pelvis_tz	hip_flexion_r	hip_adduction_r	hip_rotation_r	knee_angle_r	knee_adduction_r	knee_angle_r_beta	ankle_angle_r	subtalar_angle_r	mtp_angle_r	hip_flexion_l	hip_adduction_l	hip_rotation_l	knee_angle_l	knee_adduction_l	knee_angle_l_beta	ankle_angle_l	subtalar_angle_l	mtp_angle_l	lumbar_extension	lumbar_bending	lumbar_rotation	arm_flex_r	arm_add_r	arm_rot_r	elbow_flex_r	pro_sup_r	wrist_flex_r	wrist_dev_r	arm_flex_l	arm_add_l	arm_rot_l	elbow_flex_l	pro_sup_l	wrist_flex_l	wrist_dev_l
      0.88000000	     13.53869638	     -1.28811480	      6.00689512	     -1.48366180	      0.89743255	      0.15059799	     -8.08944988	      2.12137621	    -26.59751807	     17.47571423	      2.33882047	      0.30500875	     19.15802451	     35.60224590	     -7.68875823	     -5.36231901	     -3.80225217	    -15.16548963	     52.77078682	    -14.22324255	      0.92102398	     21.07373170	     19.77913882	     -7.68875823	    -37.11666003	      6.05960732	     -0.18483813	      1.45489436	    -15.88638978	      6.65368634	     48.71546963	     90.00000001	      0.00000000	      0.00000000	     15.00116104	    -14.03386805	      8.96954891	     45.26710626	     90.00000001	      0.00000000	      0.00000000
      0.89000000	     13.50222607	     -1.07498118	      5.95119613	     -1.47163110	      0.89802605	      0.15119070	     -9.26926296	      2.08865085	    -25.99384461	     16.81775993	      2.62863541	      0.29352528	     19.64741233	     35.34964889	     -7.68549761	     -3.44940751	     -3.43951958	    -15.20550017	     52.64175845	    -14.11311898	      0.91877201	     21.88171010	     18.88698269	     -7.68549761	    -37.23324780	      5.73548251	      0.00818175	      1.85517051	    -16.26304155	      6.77593973	     49.16809349	     90.00000001	      0.00000000	      0.00000000	     14.39194719	    -14.01288863	      8.86768604	     45.04195993	     90.00000001	      0.00000000	      0.00000000
      0.90000000	     13.55052499	     -0.93314692	      5.79344574	     -1.45940987	      0.89848362	      0.15185577	    -10.58656049	      2.15057219	    -25.10504882	     16.01541988	      2.94093674	      0.27952181	     20.17177646	     35.12857967	     -7.68179106	     -1.75557484	     -3.12786384	    -15.27962999	     52.18057953	    -13.91369721	      0.91072292	     22.66357518	     17.86902382	     -7.68179106	    -37.41734982	      5.45523949	      0.32702431	      2.24422662	    -16.68820416	      7.00167488	     49.66250653	     90.00000001	      0.00000000	      0.00000000	     13.71904669	    -13.95642082	      8.69566146	     44.86078766	     90.00000001	      0.00000000	      0.00000000
      0.91000000	     13.75520633	     -0.79466225	      5.52785038	     -1.44698692	      0.89902438	      0.15260224	    -12.19127886	      2.24655158	    -23.62024128	     14.93612516	      3.38408523	      0.26068456	     20.31004541	     34.05732978	     -7.66986439	     -0.41170498	     -2.85371920	    -15.39421518	     51.29311033	    -13.51158945	      0.89523366	     23.04314566	     16.74995053	     -7.66986439	    -37.74948735	      5.13040082	      0.71347523	      2.65257797	    -17.24553959	      7.53013499	     50.16694592	     90.00000001	      0.00000000	      0.00000000	     12.97995873	    -13.85070524	      8.24447636	     44.79795147	     90.00000001	      0.00000000	      0.00000000
      0.92000000	     13.78039161	     -0.72752474	      5.25956599	     -1.43465205	      0.89889987	      0.15337442	    -13.44701048	      2.36450260	    -22.67257040	     14.17648183	      3.58196392	      0.24742628	     20.88592793	     33.79471570	     -7.66609705	      1.16473438	     -2.66392026	    -15.77242246	     50.30618303	    -13.29230742	      0.87800853	     23.61579111	     16.08661050	     -7.66609705	    -37.86884844	      4.85743086	      1.17996578	      3.02236200	    -17.66405439	      7.54468127	     50.57622428	     90.00000001	      0.00000000	      0.00000000	     12.26185029	    -13.78959019	      8.12446290	     44.67431331	     90.00000001	      0.00000000	      0.00000000
      0.93000000	     14.03047306	     -0.61207840	      4.88778505	     -1.42207463	      0.89899713	      0.15414044	    -15.12405811	      2.45885089	    -21.14439124	     13.01311610	      3.89283269	      0.22712172	     21.00594710	     32.86882469	     -7.65907065	      2.26784172	     -2.41328855	    -16.32256309	     48.78785512	    -13.07004609	      0.85150871	     23.82643310	     15.64425353	     -7.65907065	    -38.21401830	      4.50824097	      1.69837811	      3.38667891	    -18.19256175	      7.78147647	     51.07016181	     90.00000001	      0.00000000	      0.00000000	     11.49224206	    -13.67111010	      7.73807245	     44.66862438	     90.00000001	      0.00000000	      0.00000000
      0.94000000	     13.95938902	     -0.64701753	      4.61947724	     -1.40979824	      0.89827449	      0.15492343	    -16.24917484	      2.69332184	    -20.25389534	     12.26328412	      3.92934949	      0.21403468	     21.59687858	     32.55881644	     -7.65614270	      3.84098599	     -2.33161766	    -16.70298357	     47.35720893	    -12.78857009	      0.82653922	     24.23025921	     15.11504506	     -7.65614270	    -38.20945093	      4.31556835	      2.24155600	      3.76944327	    -18.59554622	      7.75329713	     51.31916370	     90.00000001	      0.00000000	      0.00000000	     10.77994689	    -13.57791005	      7.58818977	     44.57290172	     90.00000001	      0.00000000	      0.00000000
      0.95000000	     14.30093560	     -0.54881860	      4.17580422	     -1.39695149	      0.89803179	      0.15561694	    -18.17368907	      2.68449187	    -18.49725696	     10.87528309	      4.42404363	      0.18980950	     21.48054305	     31.44250014	     -7.64962117	      4.63200258	     -2.16923296	    -17.46268819	     45.30730430	    -12.43823019	      0.79076164	     24.15481121	     15.07307608	     -7.64962117	    -38.59802808	      3.95951209	      2.78146835	      4.12015583	    -19.10122968	      7.92104266	     51.76207156	     90.00000001	      0.00000000	      0.00000000	      9.94260128	    -13.42041671	      6.99417793	     44.58965245	     90.00000001	      0.00000000	      0.00000000
      0.96000000	     14.12221203	     -0.70103534	      3.97642956	     -1.38485879	      0.89671699	      0.15635025	    -19.13816991	      3.06778177	    -17.78051027	     10.17305658	      4.29470362	      0.17755333	     22.02738687	     31.07698029	     -7.64687109	      6.21535035	     -2.21301783	    -17.65479238	     43.50582869	    -12.00741764	      0.75931995	     24.27560152	     14.79422593	     -7.64687109	    -38.47907452	      3.90656589	      3.33076302	      4.52378630	    -19.48946520	      7.83883202	     51.91627835	     90.00000001	      0.00000000	      0.00000000	      9.25350186	    -13.33122089	      6.81576869	     44.47461582	     90.00000001	      0.00000000	      0.00000000
      0.97000000	     14.16677508	     -0.76976834	      3.70016147	     -1.37237233	      0.89554957	      0.15698189	    -20.58399590	      3.30381264	    -16.78633861	      9.03798010	      4.36698435	      0.15774251	     22.37188251	     30.87696377	     -7.64392712	      7.31613279	     -2.18851999	    -17.89322597	     41.28587910	    -11.41444851	      0.72057452	     24.13845055	     14.80257874	     -7.64392712	    -38.56650132	      3.76211533	      3.85156512	      4.90785133	    -19.88414115	      7.76497281	     52.12068608	     90.00000001	      0.00000000	      0.00000000	      8.52155624	    -13.21011246	      6.42527812	     44.34754226	     90.00000001	      0.00000000	      0.00000000
      0.98000000	     14.38447156	     -0.80632030	      3.35865159	     -1.35945594	      0.89444496	      0.15746648	    -22.53048421	      3.39635455	    -14.67003148	      7.32920744	      4.91013404	      0.12791880	     21.82952685	     28.58399700	     -7.63105639	      8.05094787	     -2.21623646	    -18.61650950	     38.72364861	    -10.88580082	      0.67585517	     23.85397508	     15.90900818	     -7.63105639	    -38.76593634	      3.57321095	      4.33298854	      5.25241482	    -20.31902971	      7.81364368	     52.39573187	     90.00000001	      0.00000000	      0.00000000	      7.68657160	    -12.99002066	      5.57800482	     44.31174929	     90.00000001	      0.00000000	      0.00000000
      0.99000000	     14.30460722	     -0.93831921	      3.23243150	     -1.34701439	      0.89265382	      0.15786686	    -23.79429441	      3.66801908	    -14.40360775	      6.36515703	      4.93041798	      0.11109295	     21.99122170	     28.78682147	     -7.62683148	      9.15391571	     -2.24867528	    -18.41919345	     36.23316763	    -10.01807846	      0.63238807	     23.37193267	     16.18783594	     -7.62683148	    -38.69044280	      3.55532862	      4.76366428	      5.58472224	    -20.63118513	      7.57261922	     52.53750231	     90.00000001	      0.00000000	      0.00000000	      7.00147568	    -12.88536352	      5.23206968	     44.12612826	     90.00000001	      0.00000000	      0.00000000
      1.00000000	     14.20305560	     -1.08589299	      3.12798383	     -1.33453171	      0.89064638	      0.15812014	    -25.01008630	      3.92783749	    -14.36949915	      5.49813928	      4.99073576	      0.09596063	     22.05617686	     28.96927006	     -7.62227057	     10.16687812	     -2.26659470	    -18.17406191	     33.52436438	     -9.15558463	      0.58511054	     22.71102389	     16.85960681	     -7.62227057	    -38.57960169	      3.57055338	      5.16493509	      5.89256886	    -20.93291935	      7.30603385	     52.68323239	     90.00000001	      0.00000000	      0.00000000	      6.32062908	    -12.75605184	      4.76651582	     43.95349975	     90.00000001	      0.00000000	      0.00000000
      1.01000000	     14.03312889	     -1.30291857	      3.08561896	     -1.32204240	      0.88837764	      0.15826136	    -26.08120604	      4.27646553	    -14.62555084	      4.79340204	      5.01072330	      0.08366065	     22.15828895	     29.33220341	     -7.61776108	     11.17552449	     -2.35823012	    -17.75479206	     30.72699240	     -8.21023558	      0.53628719	     21.90897589	     17.74187714	     -7.61776108	    -38.39078971	      3.68893437	      5.54027753	      6.17319118	    -21.21017654	      6.99088140	     52.80576749	     90.00000001	      0.00000000	      0.00000000	      5.64847550	    -12.60731110	      4.29867057	     43.71451531	     90.00000001	      0.00000000	      0.00000000
      1.02000000	     13.79214963	     -1.59139614	      3.09056686	     -1.30965631	      0.88587794	      0.15841962	    -26.99787110	      4.71019452	    -15.15617906	      4.25540949	      5.03525536	      0.07427091	     22.28170609	     29.88461354	     -7.61394735	     12.18171566	     -2.53950067	    -17.10840225	     27.86406921	     -7.16705294	      0.48631975	     20.97643950	     18.77818566	     -7.61394735	    -38.13011817	      3.87806460	      5.91116469	      6.43766358	    -21.44948491	      6.63704761	     52.91185575	     90.00000001	      0.00000000	      0.00000000	      5.05602326	    -12.48245514	      3.83634318	     43.42586943	     90.00000001	      0.00000000	      0.00000000
